<svg width="24" height="24" viewBox="0 0 24 24" fill="none" xmlns="http://www.w3.org/2000/svg">
<path d="M3.58594 2.10938L4.07812 2.17188L4.5625 2.23438C4.96775 2.28443 5.35311 2.41207 5.71094 2.60938L6.58594 3.09375C6.91446 3.27511 7.21743 3.49421 7.48438 3.75781L7.83594 4.10938L8.19531 4.46094C8.43534 4.69807 8.65413 4.95363 8.85156 5.22656L9.14844 5.63281L9.4375 6.03906C9.58551 6.24384 9.74182 6.44167 9.90625 6.63281L10.2344 7.01562L10.5547 7.39062C10.7771 7.64903 10.9751 7.92491 11.1484 8.21875L11.4062 8.64844L11.6562 9.07812C11.7496 9.23654 11.8484 9.39133 11.9453 9.54688C12.0175 9.44545 12.0832 9.33598 12.1641 9.23438L12.7891 8.45312C12.9454 8.25693 13.0912 8.05213 13.2266 7.84375L13.5 7.42969L13.7656 7.00781C13.9284 6.75698 14.0972 6.50864 14.2734 6.26562L14.5703 5.86719L14.8594 5.46094C15.0657 5.17633 15.3022 4.91607 15.5625 4.67969L15.9297 4.34375L16.3047 4.00781C16.5409 3.79354 16.7882 3.59292 17.0469 3.40625L17.4531 3.10938L17.8594 2.82031C18.2142 2.56456 18.6137 2.39559 19.0469 2.32812L19.5312 2.25781L20.0156 2.17969L20.4219 2.15625C20.6915 2.17004 20.9533 2.24598 21.1953 2.38281L21.5391 2.63281L21.8672 2.9375L22.1875 3.24219C22.5488 3.58075 22.7542 4.01158 22.8359 4.47656L22.9297 4.96875L23.0156 5.46094C23.0774 5.81357 23.0971 6.17349 23.0781 6.53125L23.0469 7.02344L23.0234 7.52344C23.0065 7.84199 22.9722 8.16212 22.9219 8.47656L22.7656 9.46094C22.7124 9.79287 22.6367 10.1194 22.5312 10.4375L22.2188 11.375C22.1071 11.7118 21.9571 12.0338 21.7734 12.3359L21.2578 13.1797C21.0205 13.568 20.6955 13.8761 20.2969 14.0938L19.8594 14.3281L19.4766 14.5391C19.5456 14.6049 19.625 14.6604 19.6875 14.7344L19.9922 15.0938L20.2891 15.4453C20.6327 15.8542 20.7864 16.3572 20.7266 16.8906L20.6719 17.3516L20.625 17.8047C20.5763 18.2385 20.4151 18.636 20.1719 18.9922L19.8984 19.4062L19.6172 19.8125C19.3894 20.1461 19.1053 20.4332 18.7734 20.6641L18.3594 20.9453L17.9531 21.2344C17.6081 21.4742 17.2246 21.6368 16.8125 21.7188L16.3281 21.8125L15.8359 21.9141C15.2848 22.0233 14.7423 21.9012 14.2891 21.5625L13.8984 21.2656L13.5078 20.9766C13.1738 20.727 12.8947 20.4164 12.6875 20.0547L12.4453 19.625L12.1953 19.1953C12.1168 19.0582 12.04 18.9193 11.9609 18.7812C11.9573 18.7885 11.9568 18.7974 11.9531 18.8047L11.7266 19.25L11.5078 19.6875C11.3259 20.0471 11.0823 20.3655 10.7812 20.6328L10.4141 20.9531L10.0547 21.2734C9.65439 21.6285 9.15486 21.808 8.60938 21.7656L8.14062 21.7266L7.67969 21.6953C7.27388 21.6635 6.88362 21.548 6.52344 21.3594L6.08594 21.125L5.64844 20.8984C5.2857 20.7079 4.96698 20.4541 4.70312 20.1406L4.38281 19.7578L4.07031 19.375C3.81827 19.0751 3.61863 18.7407 3.47656 18.375L3.29688 17.9141L3.10938 17.4453C2.89171 16.8835 2.95719 16.3029 3.26562 15.7969L3.79688 14.9219C3.9314 14.7015 4.09633 14.5103 4.28906 14.3516L4.0625 14.2266C3.70942 14.0356 3.3988 13.7832 3.14062 13.4766L2.82812 13.1094L2.52344 12.7422C2.25886 12.4273 2.06285 12.0658 1.94531 11.6719L1.80469 11.2031L1.67188 10.7344C1.58063 10.4279 1.50459 10.1156 1.45312 9.79688L1.29688 8.8125C1.24971 8.51936 1.21215 8.22495 1.17969 7.92969L1.07031 6.94531C1.03529 6.62641 1.01331 6.29923 1.01562 5.97656L1.02344 5.47656V4.97656C1.02733 4.49942 1.16805 4.04545 1.4375 3.64844L1.71094 3.24219L1.99219 2.83594L2.28125 2.5C2.39596 2.39878 2.52911 2.31079 2.67969 2.24219C2.83114 2.17351 2.98825 2.12913 3.14062 2.10938H3.58594ZM3.36719 4.36719L3.09375 4.77344C3.05048 4.83719 3.02427 4.90263 3.02344 4.99219V5.49219L3.01562 5.99219C3.01386 6.23783 3.02823 6.48562 3.05469 6.72656L3.16406 7.71094C3.19296 7.97384 3.23142 8.23905 3.27344 8.5L3.35156 8.98438L3.42969 9.47656C3.46764 9.7119 3.51958 9.94117 3.58594 10.1641L3.86719 11.1016C3.90779 11.2363 3.96951 11.3518 4.05469 11.4531L4.35938 11.8203L4.67188 12.1875C4.7641 12.297 4.8773 12.3861 5.01562 12.4609L5.44531 12.6953L5.88281 12.9297C6.00408 12.9952 6.13272 13.035 6.28125 13.0469L6.78125 13.0938L7.28125 13.1328C7.36397 13.1394 7.45327 13.1442 7.53125 13.1562C7.5752 13.163 7.73683 13.188 7.89844 13.2656C7.94944 13.2903 8.04031 13.3411 8.13281 13.4219C8.22278 13.5007 8.36656 13.6574 8.4375 13.9062C8.6134 14.5277 8.1759 14.9145 8.08594 14.9844C7.96199 15.0804 7.84032 15.1244 7.79688 15.1406C7.73862 15.1624 7.67965 15.1776 7.64062 15.1875L7.09375 15.3281C6.99011 15.3546 6.81578 15.4129 6.5625 15.5078L6.09375 15.6797L5.625 15.8594C5.57338 15.879 5.53644 15.9014 5.5 15.9609L5.23438 16.3984L5 16.7812L5.15625 17.1875L5.33594 17.6562C5.39927 17.8188 5.49214 17.9636 5.60156 18.0938L5.91406 18.4688L6.23438 18.8516C6.33204 18.9677 6.44615 19.0556 6.57812 19.125L7.01562 19.3594L7.45312 19.5859C7.58692 19.6559 7.7146 19.6936 7.83594 19.7031L8.29688 19.7344L8.73438 19.7656L9.09375 19.4609L9.45312 19.1406C9.56263 19.0435 9.648 18.9211 9.71875 18.7812L9.94531 18.3438L10.1641 17.9062C10.2938 17.6497 10.4206 17.4146 10.5312 17.2109L10.7109 16.875L10.8984 16.5312L11.0312 16.3281C11.0913 16.2522 11.1685 16.1729 11.2656 16.1016C11.4934 15.9355 11.8127 15.8327 12.1562 15.9062C12.4518 15.9707 12.6522 16.1415 12.7578 16.25L13.0156 16.5938L13.2656 17.0312L13.5078 17.4609C13.6493 17.7078 13.7899 17.9591 13.9297 18.2031L14.1797 18.6328L14.4219 19.0625C14.4939 19.188 14.59 19.2904 14.7031 19.375L15.0938 19.6641L15.4688 19.9453L15.9375 19.8516L16.4219 19.7578C16.563 19.7298 16.6919 19.6699 16.8125 19.5859L17.2188 19.3047L17.6328 19.0156C17.7646 18.9235 17.8726 18.8159 17.9609 18.6875L18.2422 18.2734L18.5234 17.8672C18.5972 17.7591 18.6233 17.6629 18.6328 17.5781L18.6875 17.125L18.7344 16.7031L18.4609 16.375L18.1641 16.0234C18.0981 15.9451 18.0086 15.8798 17.8906 15.8281L17.4453 15.6328L17.0078 15.4375C16.8758 15.3797 16.7577 15.3274 16.6641 15.2812C16.6042 15.2517 16.4569 15.183 16.3359 15.0859L16.2578 15.0234L16.1797 14.9531C16.0837 14.8754 15.844 14.6547 15.8047 14.2656C15.7619 13.8404 15.9838 13.5506 16.1094 13.4297C16.2305 13.3134 16.3526 13.2512 16.4062 13.2266C16.4694 13.1976 16.5293 13.1843 16.5703 13.1719C16.7166 13.1279 16.8952 13.0962 17.0391 13.0781L17.5312 13.0156L18.0312 12.9531C18.1883 12.933 18.3329 12.8867 18.4688 12.8125L18.9062 12.5781L19.3359 12.3359C19.4311 12.284 19.5023 12.2188 19.5547 12.1328L19.8047 11.7188L20.0625 11.2969C20.1669 11.1253 20.2557 10.9446 20.3203 10.75L20.4766 10.2734L20.6328 9.80469C20.7038 9.59005 20.7529 9.3663 20.7891 9.14062L20.9453 8.15625C20.9842 7.91312 21.0103 7.66864 21.0234 7.42188L21.0547 6.92188L21.0781 6.42188C21.0892 6.21398 21.075 6.00893 21.0391 5.80469L20.8672 4.82031C20.8514 4.73205 20.8284 4.71068 20.8203 4.70312L20.5 4.39844L20.25 4.16406L19.8359 4.23438L19.3516 4.30469C19.2367 4.32289 19.1351 4.37054 19.0312 4.44531L18.2188 5.02344C18.0193 5.16729 17.8304 5.327 17.6484 5.49219L17.2812 5.82812L16.9062 6.15625C16.7485 6.29943 16.6095 6.46073 16.4844 6.63281L16.1875 7.03906L15.8984 7.44531C15.7425 7.66046 15.5892 7.87987 15.4453 8.10156L15.1797 8.51562L14.9062 8.92969C14.7351 9.19331 14.5484 9.44834 14.3516 9.69531L14.0391 10.0859L13.7344 10.4766C13.5823 10.6674 13.4637 10.8346 13.3828 10.9766L13.1875 11.3281L12.9922 11.6719C12.979 11.6951 12.964 11.7151 12.9531 11.7344C12.9323 11.8165 12.9004 11.9133 12.8438 12.0078C12.6414 12.342 12.2928 12.4962 11.9766 12.4922C11.7455 12.4892 11.5794 12.4046 11.5234 12.375L11.4922 12.3594C11.2563 12.2333 11.1334 12.0394 11.0625 11.8828C11.0308 11.8323 10.985 11.7661 10.9297 11.6797L10.6641 11.2656L10.3984 10.8438C10.2407 10.5972 10.0867 10.3468 9.9375 10.0938L9.67969 9.66406L9.42969 9.23438C9.3164 9.04214 9.1843 8.86405 9.03906 8.69531L8.71875 8.32031L8.39062 7.9375C8.18874 7.70285 7.99399 7.46214 7.8125 7.21094L7.23438 6.39844C7.10147 6.21455 6.95136 6.04315 6.78906 5.88281L6.42969 5.53125L6.07812 5.17969C5.94287 5.04632 5.79147 4.93598 5.625 4.84375L4.75 4.35938C4.61146 4.2829 4.46828 4.23712 4.32031 4.21875L3.82812 4.15625L3.53125 4.11719L3.36719 4.36719ZM11.0859 11.9219C11.0955 11.9416 11.1069 11.9565 11.1094 11.9609L11.1172 11.9688C11.1172 11.9688 11.1107 11.9571 11.0938 11.9297C11.0892 11.9224 11.0835 11.9148 11.0781 11.9062L11.0859 11.9219ZM12.1328 11.1797L12.1484 11.1875L12.3359 10.8359L12.3203 10.8281L12.1328 11.1797ZM12.3359 10.8359L12.1484 11.1875L12.1328 11.1797L12.3203 10.8281L12.3359 10.8359Z" fill="#24040E"/>
</svg>
