<svg width="24" height="24" viewBox="0 0 24 24" fill="none" xmlns="http://www.w3.org/2000/svg">
<path d="M16.2344 1.09375L16.7266 1.10938L17.2266 1.125C17.6177 1.13832 18.0019 1.21771 18.3594 1.38281L18.7422 1.55469L19.125 1.73438C19.4105 1.86695 19.6661 2.08523 19.8281 2.39844C19.9833 2.69939 20.0181 3.01429 20 3.28125L19.9609 3.78125L19.9297 4.28125C19.9085 4.58914 19.8732 4.8932 19.8281 5.1875L19.6875 6.125C19.6405 6.42962 19.5032 6.77658 19.1953 7.03906C18.8927 7.29671 18.5347 7.37318 18.2422 7.38281L17.75 7.39844L17.25 7.41406C16.9772 7.42304 16.702 7.43611 16.4297 7.45312L15.9375 7.48438L15.4375 7.51562C15.2391 7.52804 15.066 7.56479 14.9141 7.61719L14.4766 7.76562L14.2891 7.82812L14.2656 8.10938L14.2188 8.60938C14.204 8.77327 14.2247 8.85045 14.2344 8.875L14.375 9.23438V9.24219L14.5938 9.23438L15.0859 9.21875C15.4272 9.20395 15.7706 9.21941 16.1094 9.26562L16.6094 9.32812L17.1016 9.39844C17.3728 9.43582 17.7217 9.5443 18 9.83594C18.2954 10.147 18.3833 10.5334 18.375 10.8516L18.3594 11.2891L18.3516 11.7266C18.3432 12.0475 18.2988 12.3791 18.2266 12.7109L18.125 13.2031L18.0156 13.6953C17.953 13.9804 17.8199 14.2733 17.5859 14.5156C17.3506 14.7584 17.061 14.8986 16.7734 14.9688L16.2969 15.0859L15.8125 15.2031C15.4247 15.2975 15.0297 15.319 14.6328 15.2734L14.2422 15.2266L14.2031 15.6562C14.1837 15.8932 14.1856 16.1249 14.2031 16.3516L14.2422 16.8516L14.2812 17.3438C14.3062 17.6655 14.3113 17.9905 14.2969 18.3125L14.25 19.3125C14.238 19.5804 14.2281 19.8495 14.2266 20.1172V21.1094C14.2248 21.3979 14.1522 21.7315 13.9375 22.0312C13.7194 22.335 13.419 22.5069 13.125 22.5938L12.6719 22.7266L12.2266 22.8594C11.8508 22.9691 11.4627 23.0054 11.0703 22.9766L10.5703 22.9375L10.0781 22.9062C9.65626 22.8752 9.23385 22.7528 8.86719 22.4922L8.53906 22.2578L8.20312 22.0156C7.68443 21.6437 7.50135 21.0817 7.51562 20.5547L7.53125 20.0547L7.54688 19.5625C7.55475 19.2798 7.56144 18.9934 7.57031 18.7109L7.58594 18.2109L7.60156 17.7188C7.61042 17.4367 7.61617 17.1493 7.625 16.8672L7.64062 16.375L7.65625 15.875C7.66085 15.7281 7.63388 15.6651 7.625 15.6484L7.4375 15.2969L7.375 15.1719L7.07812 15.1875L6.57812 15.2031C6.08651 15.2183 5.59829 15.0838 5.19531 14.7344L4.86719 14.4531L4.53906 14.1641C4.09889 13.7801 3.9154 13.26 3.92188 12.7344L3.92969 12.2344L3.9375 11.7422L3.97656 11.3438C4.05654 10.9579 4.256 10.5975 4.60156 10.3203L4.9375 10.0469L5.27344 9.78125C5.40829 9.67327 5.57313 9.5648 5.75781 9.48438C5.93972 9.40541 6.2092 9.32108 6.52344 9.375L6.72656 9.41406L6.88281 9.4375L7.07812 9.40625L7.48438 9.3125V9.22656L7.46094 8.72656C7.44926 8.39499 7.46952 8.06427 7.50781 7.73438L7.5625 7.23438L7.61719 6.74219C7.66185 6.35887 7.7694 5.99069 7.92969 5.64062L8.13281 5.19531L8.33594 4.74219C8.47967 4.4288 8.6559 4.13235 8.85938 3.85156L9.15625 3.44531L9.44531 3.04688C9.70025 2.69527 10.024 2.40892 10.4062 2.20312L10.8438 1.96875L11.2891 1.72656C11.6407 1.53752 12.0195 1.41601 12.4141 1.35938L12.8984 1.28906L13.3906 1.21875C13.701 1.1743 14.0143 1.14523 14.3281 1.13281L14.8203 1.10938L15.3125 1.09375C15.6176 1.08168 15.928 1.0834 16.2344 1.09375ZM15.3906 3.09375L14.8984 3.10938L14.4062 3.13281C14.1601 3.14255 13.9149 3.16045 13.6719 3.19531L13.1875 3.26562L12.6953 3.33594C12.5363 3.35878 12.3832 3.41209 12.2344 3.49219L11.7969 3.72656L11.3516 3.96875C11.2343 4.03245 11.139 4.11321 11.0625 4.21875L10.7734 4.625L10.4766 5.02344C10.349 5.19948 10.2445 5.38553 10.1562 5.57812L9.75 6.46875C9.67795 6.62602 9.63014 6.79829 9.60938 6.97656L9.54688 7.46875L9.49219 7.96094C9.46529 8.19184 9.45277 8.42464 9.46094 8.65625L9.48438 9.15625L9.5 9.64844C9.50974 9.9246 9.46199 10.2763 9.24219 10.5938C9.01132 10.9267 8.67781 11.0947 8.36719 11.1641L7.9375 11.2578L7.51562 11.3594C7.25731 11.4171 6.90758 11.4694 6.58594 11.4141L6.45312 11.3906L6.1875 11.6094L5.92969 11.8125V12.2656L5.92188 12.7109L6.17969 12.9453L6.47656 13.2031C6.48359 13.204 6.49609 13.2115 6.51562 13.2109L7.01562 13.1953L7.50781 13.1719C7.76596 13.1636 8.06159 13.2043 8.34375 13.3438C8.63747 13.4893 8.86111 13.719 9.00781 13.9922L9.20312 14.3516L9.39062 14.7109C9.59762 15.0991 9.66929 15.5208 9.65625 15.9375L9.64062 16.4375L9.625 16.9297C9.61617 17.2119 9.61042 17.4991 9.60156 17.7812L9.58594 18.2734L9.57031 18.7734C9.56151 19.0537 9.55469 19.3367 9.54688 19.6172L9.53125 20.1094L9.51562 20.4922L9.69531 20.625L10.0234 20.8594C10.0306 20.8645 10.0851 20.8958 10.2266 20.9062L10.7188 20.9453L11.2188 20.9844C11.3884 20.9967 11.5341 20.9753 11.6641 20.9375L12.1172 20.8047L12.2266 20.7734V20.1016C12.2283 19.8074 12.2367 19.513 12.25 19.2188L12.2734 18.7188L12.2969 18.2266C12.3078 17.9853 12.3 17.7415 12.2812 17.5L12.25 17.0078L12.2109 16.5078C12.1849 16.1718 12.183 15.8328 12.2109 15.4922L12.25 14.9844L12.2969 14.4688L12.4141 13.9766C12.4876 13.8016 12.6032 13.6267 12.7812 13.4766C13.1442 13.1716 13.5701 13.1376 13.8672 13.1719L14.3594 13.2344L14.8594 13.2891C15.0253 13.3082 15.1874 13.2959 15.3438 13.2578L15.8203 13.1406L16.1016 13.0703L16.1641 12.7734L16.2734 12.2812C16.322 12.0575 16.3468 11.8578 16.3516 11.6797L16.3594 11.3125H16.3359L15.8438 11.2422C15.6238 11.2121 15.4006 11.2016 15.1797 11.2109L14.1797 11.2578C13.9243 11.2686 13.6156 11.235 13.3203 11.0781C13.0045 10.9099 12.7854 10.6411 12.6641 10.3359L12.5234 9.97656L12.375 9.61719C12.2212 9.23033 12.19 8.81787 12.2266 8.42188L12.2734 7.92969L12.3203 7.42969L12.4062 7C12.4563 6.85628 12.5331 6.7127 12.6328 6.57812C12.8359 6.30494 13.1067 6.13013 13.3906 6.03125L13.8281 5.88281L14.2578 5.72656C14.5952 5.6098 14.9489 5.54622 15.3125 5.52344L15.8125 5.49219L16.3047 5.46094C16.5954 5.44277 16.8885 5.4315 17.1797 5.42188L17.6797 5.39844L17.7734 5.39062L17.7812 5.35156L17.8516 4.88281C17.8879 4.64522 17.9121 4.39688 17.9297 4.14062L17.9688 3.64062L17.9766 3.40625L17.8984 3.375L17.5234 3.19531C17.4479 3.16045 17.329 3.13083 17.1562 3.125L16.6641 3.10938L16.1641 3.08594C15.9064 3.07725 15.6464 3.08363 15.3906 3.09375Z" fill="#24040E"/>
</svg>
