<svg width="320" height="320" viewBox="0 0 320 320" fill="none" xmlns="http://www.w3.org/2000/svg">
<path d="M159.965 33.1365C252.125 33.1365 314.005 93.9464 314.005 168.958C314.005 243.969 252.125 304.779 159.965 304.779C67.8047 304.779 5.92542 243.969 5.92542 168.958C5.92542 93.9464 67.7917 33.1365 159.965 33.1365Z" fill="#FF78D0"/>
<path d="M142.399 179.065C102.037 179.065 62.2622 200.217 62.2622 232.089C62.2622 271.46 107.123 301.793 160.056 301.793C212.976 301.793 257.85 271.46 257.85 232.089C257.85 200.217 218.075 179.065 177.714 179.065H142.399Z" fill="#FFC4E6"/>
<path d="M212.416 40.3612C196.375 35.6795 178.796 33.1365 159.965 33.1365C141.121 33.1365 123.555 35.6795 107.514 40.3612C133.766 75.2848 186.177 75.2848 212.429 40.3612H212.416Z" fill="#FFC4E6"/>
<path d="M159.952 308.705C115.195 308.705 74.6251 294.216 45.7393 267.9C17.5318 242.209 2 207.077 2 168.958C2 107.079 42.9747 55.1234 106.406 36.6053C123.177 31.7019 141.199 29.2241 159.952 29.2241C178.705 29.2241 196.727 31.7019 213.511 36.6053C276.929 55.1234 317.917 107.079 317.917 168.958C317.917 207.077 302.385 242.209 274.178 267.9C245.292 294.216 204.722 308.705 159.965 308.705H159.952ZM159.952 37.0487C141.929 37.0487 124.65 39.4221 108.597 44.1169C48.5953 61.6439 9.82457 110.639 9.82457 168.958C9.82457 204.847 24.4435 237.918 51.0079 262.109C78.4591 287.109 117.152 300.867 159.952 300.867C202.752 300.867 241.458 287.096 268.896 262.109C295.447 237.918 310.079 204.847 310.079 168.958C310.079 110.639 271.309 61.6309 211.307 44.1169C195.241 39.4221 177.962 37.0487 159.952 37.0487Z" fill="#24040E"/>
<path d="M205.634 51.4982C207.134 47.0252 209.377 42.6825 212.416 38.6268C229.082 16.4442 258.163 9.54549 282.224 22.0648C306.284 34.5841 318.804 63.1438 312.283 90.608C309.036 104.262 300.233 114.212 289.318 119.611" fill="#FF78D0"/>
<path d="M282.732 107.353C268.739 84.6091 246.778 66.4431 218.858 55.8277C219.914 52.711 221.479 49.7376 223.539 46.986C231.964 35.7838 244.301 29.7458 256.95 29.7458C263.301 29.7458 269.731 31.2716 275.782 34.4145C294.091 43.9474 303.741 66.2214 298.721 87.3868C296.582 96.3851 290.766 103.532 282.719 107.353H282.732Z" fill="#FF45B2"/>
<path d="M289.318 123.523C287.884 123.523 286.488 122.728 285.81 121.345C284.845 119.415 285.641 117.068 287.584 116.103C298.277 110.808 305.698 101.432 308.488 89.6951C314.566 64.1348 302.763 37.1531 280.437 25.5206C258.242 13.9663 230.96 20.4607 215.559 40.9611C212.846 44.5604 210.76 48.5248 209.351 52.724C208.66 54.7714 206.456 55.8799 204.396 55.1887C202.348 54.4976 201.24 52.2806 201.931 50.2332C203.613 45.2254 206.091 40.5177 209.299 36.2533C227.009 12.6883 258.45 5.25493 284.05 18.5697C309.506 31.8193 322.99 62.4917 316.104 91.4947C312.766 105.527 303.885 116.755 291.066 123.106C290.505 123.38 289.918 123.51 289.331 123.51L289.318 123.523Z" fill="#24040E"/>
<path d="M114.283 51.4981C112.783 47.025 110.54 42.6824 107.501 38.6267C90.8349 16.431 61.7536 9.53231 37.693 22.0516C13.6325 34.5709 1.11319 63.1306 7.63366 90.5949C10.8809 104.249 19.6835 114.199 30.5988 119.598" fill="#FF78D0"/>
<path d="M37.1843 107.353C51.1772 84.6091 73.1382 66.4431 101.059 55.8277C100.003 52.711 98.4376 49.7376 96.3772 46.986C87.9527 35.7838 75.616 29.7458 62.9663 29.7458C56.6153 29.7458 50.1861 31.2716 44.1351 34.4145C25.8256 43.9474 16.1753 66.2214 21.1961 87.3868C23.3348 96.3851 29.1511 103.532 37.1973 107.353H37.1843Z" fill="#FF45B2"/>
<path d="M30.5987 123.523C30.0118 123.523 29.425 123.393 28.8642 123.119C16.058 116.768 7.16407 105.54 3.82559 91.5078C-3.06003 62.5047 10.4243 31.8455 35.8802 18.5828C61.4796 5.25498 92.9214 12.6883 110.631 36.2664C113.839 40.5307 116.317 45.2385 117.999 50.2463C118.69 52.2937 117.582 54.5106 115.534 55.2018C113.487 55.893 111.27 54.7845 110.579 52.7371C109.17 48.5248 107.084 44.5604 104.371 40.9611C88.97 20.4738 61.6883 13.9794 39.4926 25.5337C17.1665 37.1531 5.36442 64.1479 11.4415 89.7082C14.2323 101.445 21.6526 110.821 32.3461 116.116C34.2762 117.081 35.0717 119.428 34.1197 121.359C33.4416 122.741 32.0462 123.536 30.6117 123.536L30.5987 123.523Z" fill="#24040E"/>
<path d="M201.266 198.73L209.834 168.267C210.329 166.506 209.625 164.602 208.06 163.637C202.726 160.338 188.473 153.726 159.965 153.726C131.458 153.726 117.204 160.338 111.87 163.637C110.305 164.602 109.601 166.493 110.096 168.267L118.664 198.73C129.254 196.057 190.69 196.057 201.279 198.73H201.266Z" fill="white"/>
<path d="M139.36 165.463C140.837 165.463 142.034 164.266 142.034 162.79C142.034 161.313 140.837 160.116 139.36 160.116C137.884 160.116 136.687 161.313 136.687 162.79C136.687 164.266 137.884 165.463 139.36 165.463Z" fill="#FFC4E6"/>
<path d="M132.814 173.47C134.29 173.47 135.487 172.273 135.487 170.797C135.487 169.32 134.29 168.124 132.814 168.124C131.337 168.124 130.14 169.32 130.14 170.797C130.14 172.273 131.337 173.47 132.814 173.47Z" fill="#FFC4E6"/>
<path d="M122.785 169.362C124.262 169.362 125.458 168.165 125.458 166.689C125.458 165.212 124.262 164.015 122.785 164.015C121.309 164.015 120.112 165.212 120.112 166.689C120.112 168.165 121.309 169.362 122.785 169.362Z" fill="#FFC4E6"/>
<path d="M180.557 165.463C182.033 165.463 183.23 164.266 183.23 162.79C183.23 161.313 182.033 160.116 180.557 160.116C179.08 160.116 177.883 161.313 177.883 162.79C177.883 164.266 179.08 165.463 180.557 165.463Z" fill="#FFC4E6"/>
<path d="M159.952 162.777C161.428 162.777 162.625 161.58 162.625 160.104C162.625 158.627 161.428 157.43 159.952 157.43C158.475 157.43 157.278 158.627 157.278 160.104C157.278 161.58 158.475 162.777 159.952 162.777Z" fill="#FFC4E6"/>
<path d="M151.658 170.796C153.134 170.796 154.331 169.6 154.331 168.123C154.331 166.647 153.134 165.45 151.658 165.45C150.181 165.45 148.984 166.647 148.984 168.123C148.984 169.6 150.181 170.796 151.658 170.796Z" fill="#FFC4E6"/>
<path d="M187.103 173.47C188.58 173.47 189.776 172.273 189.776 170.797C189.776 169.32 188.58 168.124 187.103 168.124C185.627 168.124 184.43 169.32 184.43 170.797C184.43 172.273 185.627 173.47 187.103 173.47Z" fill="#FFC4E6"/>
<path d="M197.132 169.362C198.608 169.362 199.805 168.165 199.805 166.689C199.805 165.212 198.608 164.015 197.132 164.015C195.655 164.015 194.458 165.212 194.458 166.689C194.458 168.165 195.655 169.362 197.132 169.362Z" fill="#FFC4E6"/>
<path d="M168.259 170.796C169.735 170.796 170.932 169.6 170.932 168.123C170.932 166.647 169.735 165.45 168.259 165.45C166.782 165.45 165.586 166.647 165.586 168.123C165.586 169.6 166.782 170.796 168.259 170.796Z" fill="#FFC4E6"/>
<path d="M114.283 194.701C114.283 213.845 134.731 232.102 159.952 232.102C185.173 232.102 205.621 213.845 205.621 194.701C205.621 179.678 189.164 173.027 159.952 173.027C130.74 173.027 114.283 179.678 114.283 194.701Z" fill="#24040E"/>
<path d="M160.056 263.114C138.33 263.114 117.621 256.358 100.172 243.591C98.4248 242.313 98.0466 239.862 99.3246 238.127C100.603 236.38 103.054 236.001 104.789 237.279C120.881 249.068 139.986 255.289 160.043 255.289C180.1 255.289 199.205 249.055 215.298 237.279C217.045 236.001 219.484 236.38 220.762 238.127C222.04 239.875 221.662 242.313 219.914 243.591C202.465 256.358 181.756 263.114 160.03 263.114H160.056Z" fill="#24040E"/>
<path d="M104.032 124.071C96.6641 124.071 91.5129 130.826 91.5129 140.503C91.5129 154.209 101.098 155.265 104.032 155.265C106.966 155.265 116.552 154.196 116.552 140.503C116.552 130.826 111.4 124.071 104.032 124.071Z" fill="#24040E"/>
<path d="M212.794 124.071C205.426 124.071 200.275 130.826 200.275 140.503C200.275 154.209 209.86 155.265 212.794 155.265C215.728 155.265 225.313 154.196 225.313 140.503C225.313 130.826 220.162 124.071 212.794 124.071Z" fill="#24040E"/>
<g style="mix-blend-mode:darken">
<path d="M271.53 204.86C281.009 204.86 288.692 197.176 288.692 187.698C288.692 178.22 281.009 170.536 271.53 170.536C262.052 170.536 254.369 178.22 254.369 187.698C254.369 197.176 262.052 204.86 271.53 204.86Z" fill="#FF5CD3"/>
</g>
<g style="mix-blend-mode:darken">
<path d="M48.3866 204.86C57.8649 204.86 65.5485 197.176 65.5485 187.698C65.5485 178.22 57.8649 170.536 48.3866 170.536C38.9084 170.536 31.2247 178.22 31.2247 187.698C31.2247 197.176 38.9084 204.86 48.3866 204.86Z" fill="#FF5CD3"/>
</g>
</svg>
