<svg width="24" height="24" viewBox="0 0 24 24" fill="none" xmlns="http://www.w3.org/2000/svg">
<path d="M14.5391 0.976562C14.8107 0.992022 15.0866 0.999963 15.3594 1.00781L15.8516 1.02344L16.3516 1.03906C16.7406 1.05026 17.1258 1.1184 17.4922 1.25L17.9609 1.42188L18.4297 1.58594C18.7889 1.71497 19.1258 1.89668 19.4297 2.125L19.8203 2.42188L20.2109 2.71094C20.5647 2.97673 20.8354 3.31927 21.0234 3.71875L21.2344 4.17188L21.4453 4.61719C21.6016 4.95013 21.7145 5.30144 21.7812 5.66406L21.875 6.15625L21.9609 6.64844C22.0288 7.0175 22.0505 7.39185 22.0156 7.76562L21.9219 8.76562C21.9025 8.97162 21.9021 9.17833 21.9297 9.38281L22.0703 10.3828C22.1175 10.7306 22.1262 11.0801 22.1016 11.4297L22.0703 11.9297L22.0312 12.4297C22.0137 12.6789 22.009 12.9307 22.0156 13.1797L22.0312 13.6719L22.0391 14.1719C22.0484 14.5199 22.0275 14.8676 21.9688 15.2109L21.7969 16.1953C21.7547 16.4425 21.7231 16.6926 21.7031 16.9453L21.625 17.9453C21.5879 18.4151 21.4257 18.8541 21.1484 19.2344L20.5547 20.0469C20.2933 20.4054 19.9594 20.6911 19.5625 20.8906L18.6719 21.3438C18.3333 21.5138 17.9745 21.629 17.6016 21.6953L16.6172 21.8672C16.2657 21.9295 15.9114 21.9541 15.5547 21.9375L14.5547 21.8906C14.3144 21.8796 14.075 21.8881 13.8359 21.9062L13.3359 21.9375L12.8438 21.9766C12.5385 21.9999 12.2279 22.0139 11.9219 22.0156H11.4297L10.9297 22.0234C10.614 22.0252 10.2989 22.0062 9.98438 21.9766L9.48438 21.9297L8.99219 21.8828C8.76193 21.8611 8.52877 21.8611 8.29688 21.875L7.79688 21.9062L7.30469 21.9375C6.92973 21.96 6.55416 21.9243 6.1875 21.8438L5.70312 21.7422L5.21094 21.6328C4.82581 21.5477 4.46595 21.3971 4.13281 21.1875L3.30469 20.6719C2.95676 20.4529 2.65768 20.1727 2.42188 19.8359L2.14062 19.4297L1.85938 19.0312C1.61997 18.6891 1.45806 18.3076 1.375 17.8984L1.28125 17.4062L1.17969 16.9219C1.10729 16.5645 1.07764 16.2003 1.09375 15.8359L1.14062 14.8359C1.15007 14.6174 1.14126 14.3976 1.10938 14.1797L1.03125 13.6875L0.960938 13.1875C0.912583 12.8556 0.895276 12.5025 0.960938 12.1719L1.02344 11.8672L1.05469 11.7109C1.05137 11.6972 1.04062 11.687 1.03906 11.6797C1.0227 11.6024 1.01185 11.5291 1.00781 11.4844C0.998626 11.3822 0.996321 11.2474 0.992188 11.1016L0.976562 10.6094L0.960938 10.1094C0.951753 9.78409 0.959316 9.45678 0.992188 9.13281L1.04688 8.64062L1.09375 8.14844C1.11962 7.89348 1.13514 7.63085 1.14062 7.375L1.15625 6.88281L1.16406 6.38281C1.172 6.01606 1.22896 5.65102 1.32812 5.29688L1.46094 4.82031L1.59375 4.33594C1.71783 3.8928 1.9505 3.50028 2.28125 3.17969L2.64062 2.83594L3 2.48438C3.30141 2.19286 3.65355 1.97347 4.04688 1.82812L4.51562 1.65625L4.97656 1.48438C5.29781 1.36621 5.62954 1.27565 5.96875 1.21875L6.46094 1.14062L6.95312 1.05469C7.28305 0.999507 7.61883 0.971524 7.95312 0.96875H8.44531L8.94531 0.960938C9.25819 0.958344 9.57055 0.973773 9.88281 1L10.3828 1.03906L10.875 1.07812C11.0891 1.09614 11.3082 1.09628 11.5234 1.07031L12.0156 1.00781L12.5156 0.945312C12.8558 0.904263 13.198 0.894708 13.5391 0.914062L14.5391 0.976562ZM12.7578 2.9375L12.2578 2.99219L11.7578 3.05469C11.4093 3.09649 11.0601 3.09969 10.7109 3.07031L10.2109 3.03125L9.71875 2.99219C9.4671 2.97101 9.21271 2.95885 8.96094 2.96094L8.46094 2.96875H7.96875C7.73888 2.97066 7.50842 2.99314 7.28125 3.03125L6.78906 3.10938L6.29688 3.19531C6.07921 3.23194 5.86718 3.28459 5.66406 3.35938L4.74219 3.70312C4.61173 3.75116 4.49514 3.82084 4.39062 3.92188L4.03125 4.27344L3.67188 4.61719C3.59771 4.68949 3.55246 4.77134 3.52344 4.875L3.39062 5.35938L3.25 5.83594C3.19567 6.02997 3.16831 6.23189 3.16406 6.42969L3.15625 6.92188L3.14062 7.42188C3.134 7.72978 3.11698 8.0371 3.08594 8.34375L3.03906 8.84375L2.98438 9.33594C2.96018 9.57439 2.95416 9.8155 2.96094 10.0547L2.97656 10.5547L2.98438 11.0469V11.0547L3.09375 11.4141C3.10547 11.5286 3.0895 11.6281 3.08594 11.6641C3.07659 11.7578 3.05746 11.861 3.03906 11.9531L2.98438 12.2578L2.92188 12.5625C2.92147 12.565 2.92273 12.575 2.92188 12.5859C2.92082 12.6009 2.9137 12.6214 2.91406 12.6484C2.91496 12.7086 2.92203 12.792 2.9375 12.8984L3.01562 13.3984L3.08594 13.8906C3.13622 14.2343 3.15594 14.5833 3.14062 14.9297L3.11719 15.4297L3.09375 15.9219C3.08483 16.1237 3.10062 16.326 3.14062 16.5234L3.24219 17.0078L3.33594 17.5C3.36525 17.6447 3.42059 17.7692 3.5 17.8828L3.78125 18.2812L4.0625 18.6875C4.14583 18.8065 4.24651 18.9003 4.36719 18.9766L4.78125 19.2344L5.19531 19.5C5.32918 19.5841 5.47638 19.6432 5.64062 19.6797L6.13281 19.7891L6.61719 19.8906C6.80253 19.9313 6.9892 19.9487 7.17969 19.9375L8.17969 19.875C8.51363 19.855 8.8471 19.8671 9.17969 19.8984L9.67969 19.9453L10.1719 19.9922C10.4203 20.0156 10.6728 20.0248 10.9219 20.0234L11.4141 20.0156H11.9141C12.1721 20.0142 12.4299 20.004 12.6875 19.9844L13.1875 19.9453L13.6797 19.9062C14.0014 19.8817 14.3257 19.8757 14.6484 19.8906L15.6484 19.9375C15.8563 19.9471 16.0611 19.9345 16.2656 19.8984L17.25 19.7266C17.4329 19.6942 17.607 19.6383 17.7734 19.5547L18.6641 19.1016C18.7716 19.0473 18.8618 18.9779 18.9375 18.875L19.2344 18.4609L19.5312 18.0547C19.5919 17.9714 19.625 17.8881 19.6328 17.7891L19.7109 16.7891C19.7358 16.4749 19.7753 16.1605 19.8281 15.8516L19.9141 15.3594L19.9922 14.875C20.0288 14.6609 20.0448 14.4431 20.0391 14.2266L20.0312 13.7266L20.0156 13.2266C20.0074 12.9139 20.0171 12.6015 20.0391 12.2891L20.0703 11.7891L20.1094 11.2891C20.1243 11.076 20.1151 10.8619 20.0859 10.6484L20.0156 10.1562L19.9531 9.65625C19.9043 9.29859 19.8958 8.93767 19.9297 8.57812L20.0234 7.57812C20.0411 7.38724 20.0345 7.19551 20 7.00781L19.8125 6.02344C19.7765 5.82932 19.7228 5.64399 19.6406 5.46875L19.4297 5.02344L19.2188 4.57031C19.1675 4.4611 19.0975 4.37996 19.0078 4.3125L18.6172 4.01562L18.2266 3.72656C18.0859 3.62091 17.9249 3.53157 17.75 3.46875L17.2812 3.30469L16.8125 3.13281C16.6452 3.0728 16.4744 3.0442 16.2969 3.03906L15.2969 3.00781C15.0046 2.99939 14.713 2.98536 14.4219 2.96875L13.9219 2.9375L13.4297 2.91406C13.207 2.90136 12.9816 2.91055 12.7578 2.9375ZM1.75 12.4297C1.78829 12.4437 1.82708 12.4517 1.86719 12.4609C1.82452 12.454 1.78847 12.4411 1.75 12.4297Z" fill="#24040E"/>
<path d="M15 11.0312C14.9864 10.9836 14.9582 10.908 14.9141 10.7969L14.7344 10.3359L14.5469 9.875C14.493 9.73934 14.4197 9.62264 14.3203 9.52344L13.625 8.82812C13.4986 8.70226 13.3523 8.59524 13.1875 8.50781L12.7422 8.27344L12.3047 8.03906C12.2164 7.99227 12.127 7.97081 12.0234 7.97656L11.5234 8.00781L11.0156 8.03906C10.8392 8.04938 10.6707 8.08327 10.5078 8.14844L10.0391 8.33594L9.57812 8.52344C9.48963 8.55892 9.42691 8.60872 9.375 8.67969L9.07812 9.08594L8.78906 9.49219C8.66474 9.6656 8.56217 9.84839 8.47656 10.0391L8.27344 10.4922L8.07031 10.9375C8.02299 11.0432 8.00141 11.1543 8.00781 11.2812L8.03906 11.7812L8.0625 12.2891C8.06959 12.4105 8.10398 12.5154 8.16406 12.6172L8.42188 13.0469L8.67188 13.4766C8.75603 13.618 8.8616 13.7357 8.98438 13.8359L9.75 14.4609C9.87339 14.5609 10.0146 14.6344 10.1719 14.6875L10.6484 14.8516L11.1172 15.0078C11.2277 15.0451 11.3354 15.0508 11.4531 15.0312L11.9531 14.9531L12.4453 14.8672C12.5798 14.8443 12.695 14.7994 12.7969 14.7266L13.5938 14.1484C13.7508 14.0362 13.8921 13.9072 14.0156 13.7578L14.3281 13.375L14.6406 13C14.7077 12.9189 14.7544 12.827 14.7734 12.7188L14.8594 12.2344L14.9453 11.7422C14.9679 11.6134 14.9827 11.5119 14.9922 11.4375C14.9992 11.3827 14.9993 11.3534 15 11.3438V11.0312ZM16.9141 12.0859L16.7422 13.0703C16.6636 13.5165 16.4765 13.9237 16.1875 14.2734L15.8672 14.6562L15.5547 15.0312C15.3215 15.313 15.0551 15.5607 14.7578 15.7734L13.9609 16.3516C13.6082 16.6038 13.2081 16.7633 12.7812 16.8359L12.2891 16.9219L11.7891 17.0078C11.3468 17.0825 10.9019 17.0496 10.4766 16.9062L10.0078 16.7422L9.53125 16.5859C9.15199 16.4579 8.8028 16.2673 8.49219 16.0156L7.72656 15.3906C7.41769 15.1398 7.15681 14.8424 6.95312 14.5L6.70312 14.0703L6.44531 13.6406C6.21819 13.2582 6.09445 12.8345 6.07031 12.3906L6.03906 11.8906L6.01562 11.3906C5.99216 10.9521 6.07038 10.5268 6.25 10.125L6.44531 9.67188L6.64844 9.22656C6.79036 8.90956 6.96053 8.60366 7.16406 8.32031L7.46094 7.92188L7.75 7.51562C8.02586 7.1323 8.39124 6.84783 8.82812 6.67188L9.76562 6.29688C10.1305 6.15076 10.5137 6.0616 10.9062 6.03906L11.4062 6.01562L11.9062 5.98438C12.3719 5.95763 12.8215 6.05528 13.2344 6.27344L14.125 6.74219C14.4608 6.92041 14.7628 7.14678 15.0312 7.41406L15.3828 7.75781L15.7266 8.10156C16.0223 8.396 16.2521 8.74503 16.4062 9.13281L16.5938 9.59375L16.7734 10.0547C16.8322 10.2027 16.8835 10.3496 16.9219 10.4844C16.956 10.6046 17.0001 10.785 17 10.9766V11.3438C16.9998 11.5458 16.9612 11.8171 16.9141 12.0859Z" fill="#24040E"/>
</svg>
