<svg width="24" height="24" viewBox="0 0 24 24" fill="none" xmlns="http://www.w3.org/2000/svg">
<path d="M13.0078 2.05469L13.5625 2.07812C13.9745 2.09626 14.3776 2.18005 14.7656 2.32031L15.2812 2.50781L15.7969 2.6875C16.1842 2.82752 16.547 3.02559 16.875 3.27344L17.3125 3.60156L17.7422 3.92969C18.0514 4.16332 18.3299 4.43523 18.5781 4.73438L19.2812 5.57812C19.6034 5.96651 19.8484 6.51821 20.0469 7.11719L20.3203 7.96094C20.5777 8.34827 20.5513 8.86826 20.2109 9.21094C19.8212 9.60224 19.1882 9.60063 18.7969 9.21094L18.7266 9.14062L18.5547 8.97656L18.4766 8.75L18.1484 7.75C17.97 7.21158 17.8191 6.95227 17.7422 6.85938L17.3906 6.42969L17.0391 6.00781C16.8895 5.82791 16.7228 5.67032 16.5391 5.53125L16.1016 5.19531L15.6641 4.86719C15.4982 4.74233 15.316 4.64219 15.1172 4.57031L14.0859 4.19531C13.8886 4.12397 13.6855 4.08753 13.4766 4.07812L12.9219 4.05469L12.375 4.03125C12.1374 4.02098 11.8993 4.03575 11.6641 4.07812L11.125 4.17188L10.5859 4.27344C10.3999 4.30695 10.2283 4.37251 10.0703 4.46875L9.60156 4.75L9.13281 5.03906C8.91247 5.17379 8.70469 5.32528 8.50781 5.49219L8.08594 5.84375L7.67188 6.20312C7.53726 6.31775 7.42676 6.4492 7.34375 6.60938L6.84375 7.59375C6.72985 7.81471 6.6339 8.04238 6.5625 8.28125L6.25 9.34375C6.1763 9.59142 6.11889 9.84438 6.08594 10.1016L5.94531 11.1953C5.91452 11.4357 5.90985 11.6775 5.92969 11.9219L6.02344 13.0312C6.04517 13.2962 6.08041 13.5584 6.14062 13.8125L6.27344 14.3438L6.39844 14.8828C6.46588 15.1671 6.54125 15.4525 6.625 15.7344L6.78125 16.2656L6.9375 16.7891C6.98154 16.9373 7.05776 17.061 7.16406 17.1719L7.53906 17.5703L7.92188 17.9688C8.10819 18.163 8.30882 18.343 8.51562 18.5078L8.9375 18.8516L9.36719 19.1875C9.52452 19.3128 9.70216 19.4118 9.89844 19.4844L10.4141 19.6797L10.9297 19.8672C11.1252 19.9395 11.3297 19.9842 11.5391 19.9922L12.0938 20.0078L12.6484 20.0312C12.8558 20.0389 13.0554 20.017 13.25 19.9609L13.7812 19.8047L14.3047 19.6562C14.5385 19.5886 14.7614 19.4936 14.9688 19.3828L15.4453 19.1328L15.9219 18.875C16.1398 18.7583 16.3518 18.6184 16.5547 18.4609L16.9922 18.125L17.4219 17.7891C17.5257 17.7085 17.5942 17.6129 17.6406 17.4922L17.8438 16.9766L18.0391 16.4688C18.1064 16.2936 18.1343 16.1139 18.1328 15.9297V15.3828L18.125 14.8359C18.124 14.7468 18.1007 14.6862 18.0469 14.6172L17.375 13.7578C17.2778 13.6335 17.165 13.5376 17.0234 13.4688L16.8203 13.3672C16.8102 13.3995 16.8079 13.4366 16.7969 13.4688L16.625 13.9844L16.4453 14.5C16.2741 15 15.9584 15.4117 15.5156 15.7031L14.6094 16.2969C14.2294 16.5464 13.8094 16.7083 13.3594 16.7734L12.8203 16.8516L12.2734 16.9297C11.6677 17.0165 11.0928 16.8359 10.6484 16.3984L10.2656 16.0234L9.89062 15.6484C9.48108 15.2442 9.26151 14.7163 9.29688 14.125L9.32812 13.6172L9.35156 13.1094L9.4375 12.6641C9.56849 12.2398 9.84577 11.8902 10.2344 11.6484L10.6875 11.3672L11.1328 11.0859C11.5416 10.8318 11.9971 10.7009 12.4766 10.6875L13.0234 10.6719L13.5625 10.6562C13.9191 10.6467 14.2769 10.6679 14.6328 10.7109L14.9219 10.7422C14.9081 10.681 14.9104 10.6157 14.8906 10.5547L14.7188 10.0312L14.5547 9.50781C14.5338 9.44363 14.5025 9.41626 14.4453 9.38281L13.9766 9.10156L13.5 8.82812C13.4014 8.77052 13.3186 8.75099 13.2266 8.75781L12.1641 8.83594C12.0503 8.8447 11.9647 8.88034 11.8906 8.9375L11.4844 9.25781L11.0703 9.57031C10.9512 9.66216 10.8498 9.74645 10.7656 9.80469C10.7268 9.83153 10.6683 9.8654 10.6094 9.89844C10.583 9.91318 10.5208 9.94841 10.4453 9.97656C10.4081 9.99032 10.3385 10.0092 10.25 10.0234C10.1914 10.0327 10.0438 10.0363 9.85938 9.99219V10L9.75781 9.97656C9.7459 9.97238 9.73084 9.97352 9.71875 9.96875L9.6875 9.96094V9.9375C9.19788 9.77404 8.9054 9.27512 9.03125 8.76562C9.12483 8.38933 9.42031 8.12221 9.77344 8.03906C9.79585 8.02204 9.82473 8.00507 9.85156 7.98438L10.2578 7.67188L10.6719 7.35156C11.0633 7.05018 11.5185 6.88147 12.0078 6.84375L13.0703 6.76562C13.5815 6.72626 14.0685 6.84479 14.5078 7.10156L14.9844 7.375L15.4609 7.65625C15.94 7.93753 16.2813 8.36237 16.4531 8.89062L16.625 9.41406L16.7891 9.9375C16.9162 10.329 16.9886 10.7301 16.9922 11.1406V11.2266L17.4062 11.4297L17.8984 11.6719C18.3133 11.8739 18.6688 12.16 18.9531 12.5234L19.625 13.3828C19.9514 13.8004 20.1204 14.2907 20.125 14.8203L20.1328 15.3672V15.9141C20.1364 16.3507 20.063 16.7796 19.9062 17.1875L19.7109 17.6953L19.5078 18.2109C19.3301 18.673 19.0394 19.0638 18.6484 19.3672L18.2188 19.7031L17.7812 20.0469C17.4902 20.2727 17.1803 20.4692 16.8594 20.6406L16.3828 20.8984L15.9141 21.1484C15.5814 21.3262 15.2247 21.4646 14.8594 21.5703L14.3359 21.7266L13.8047 21.8828C13.4027 21.9987 12.9893 22.0472 12.5703 22.0312L11.4609 21.9844C11.0421 21.9683 10.6352 21.8873 10.2422 21.7422L9.71875 21.5547L9.20312 21.3594C8.81005 21.214 8.44377 21.0103 8.11719 20.75L7.69531 20.4141L7.26562 20.0703C6.98934 19.8499 6.73081 19.6085 6.48438 19.3516L5.71875 18.5547C5.39215 18.2137 5.15791 17.812 5.02344 17.3594L4.86719 16.8281L4.70312 16.3047C4.60877 15.9871 4.52924 15.6647 4.45312 15.3438L4.32031 14.8047L4.19531 14.2734C4.11163 13.9203 4.05329 13.5594 4.02344 13.1953L3.98438 12.6406L3.9375 12.0859C3.90625 11.703 3.91224 11.3176 3.96094 10.9375L4.10156 9.84375C4.14816 9.48077 4.22395 9.12381 4.32812 8.77344L4.64062 7.71094C4.74765 7.35203 4.89099 7.00447 5.0625 6.67188L5.3125 6.1875L5.57031 5.69531C5.77276 5.30343 6.03891 4.95716 6.375 4.67188L6.79688 4.32031L7.21094 3.96875C7.48712 3.7345 7.78468 3.52484 8.09375 3.33594L8.55469 3.04688L9.02344 2.76562C9.39456 2.5388 9.79815 2.38199 10.2266 2.30469L10.7734 2.21094L11.3125 2.10938C11.6924 2.04098 12.0757 2.01464 12.4609 2.03125L13.0078 2.05469ZM13.0781 12.6719L12.5312 12.6875C12.3977 12.6914 12.2879 12.7266 12.1875 12.7891L11.7422 13.0703L11.3438 13.3047L11.3203 13.7344L11.2891 14.2266L11.6719 14.6016L12.0078 14.9375L12.5312 14.8672L13.0703 14.7891C13.2349 14.7652 13.3835 14.7119 13.5156 14.625L13.9609 14.3281L14.4141 14.0312C14.4831 13.9858 14.5256 13.9367 14.5547 13.8516L14.7266 13.3359L14.9062 12.8203C14.9138 12.7983 14.9075 12.772 14.9141 12.75L14.3984 12.6953C14.1384 12.6638 13.8755 12.6494 13.6172 12.6562L13.0781 12.6719ZM10.2734 8.46094L10.4141 8.10156C10.3844 8.09122 10.3557 8.08504 10.3281 8.07812L10.2734 8.46094Z" fill="#24040E"/>
</svg>
