<svg width="24" height="24" viewBox="0 0 24 24" fill="none" xmlns="http://www.w3.org/2000/svg">
<path d="M14.4688 1.24219C14.7824 1.23997 15.0127 1.38299 15.1328 1.48438C15.2456 1.58026 15.3109 1.68061 15.3438 1.73438C15.4093 1.8419 15.4471 1.94154 15.4609 1.98438C15.4928 2.08299 15.517 2.18676 15.5312 2.26562L15.7031 3.21875C15.7278 3.35524 15.7711 3.48674 15.8516 3.60938L16.125 4.01562L16.3906 4.42969C16.5092 4.61052 16.6507 4.77678 16.8047 4.9375L17.1484 5.29688L17.4922 5.66406C17.5907 5.76664 17.7034 5.84406 17.8359 5.89844L18.3047 6.08594L18.7656 6.27344C18.9779 6.36015 19.1941 6.42643 19.4141 6.47656L20.3828 6.69531C20.5169 6.72586 20.6237 6.75627 20.7031 6.77344C20.7419 6.78182 20.7735 6.78432 20.7969 6.78906H20.8047L21.1484 6.74219L21.4688 6.95312L21.5547 7.00781C22.0142 7.31396 22.142 7.93882 21.8359 8.39844C21.6008 8.75061 21.1793 8.88995 20.7891 8.80469L20.7734 8.8125L20.6172 8.78906L20.5 8.77344C20.3982 8.75626 20.1975 8.70769 19.9375 8.64844L18.9688 8.42969C18.6409 8.35495 18.3206 8.25283 18.0078 8.125L17.0859 7.75C16.6938 7.58971 16.3401 7.35267 16.0469 7.04688L15.7031 6.6875L15.4766 6.45312L15.4609 6.66406L15.4141 7.16406C15.3915 7.39642 15.3872 7.62801 15.3984 7.85938L15.4219 8.35938L15.4453 8.85156C15.4609 9.17034 15.4571 9.49359 15.4375 9.8125L15.4062 10.3047L15.3828 10.8047C15.3696 11.02 15.3761 11.237 15.4062 11.4531L15.4766 11.9453L15.5391 12.4453C15.5904 12.8132 15.5999 13.186 15.5547 13.5547L15.4922 14.0469L15.4297 14.5469C15.402 14.7732 15.3954 14.9975 15.4062 15.2188L15.4531 16.2031C15.4726 16.6022 15.4187 16.9943 15.2969 17.375L15.1484 17.8516L14.9922 18.3203C14.8901 18.6385 14.7681 18.9513 14.6172 19.25L14.3906 19.6953L14.1641 20.1328C13.962 20.5328 13.6747 20.8707 13.3047 21.125L12.8984 21.4062L12.4922 21.6797C12.2159 21.8694 11.9283 22.0401 11.625 22.1797L10.7344 22.5859C10.3499 22.7623 9.93872 22.8478 9.51562 22.8438H9.03125L8.53906 22.8359C8.20457 22.8325 7.87138 22.7964 7.53906 22.7344L7.04688 22.6484L6.55469 22.5547C6.11325 22.4718 5.70805 22.283 5.35938 22L4.97656 21.6875L4.58594 21.375C4.2924 21.1368 4.04029 20.8574 3.82812 20.5469L3.55469 20.1484L3.27344 19.7422C3.08077 19.46 2.91692 19.1593 2.78125 18.8438L2.39062 17.9375C2.23552 17.5767 2.14514 17.1966 2.11719 16.8047L2.08594 16.3125L2.04688 15.8203C2.01774 15.4119 2.06771 15.0061 2.19531 14.6172L2.35156 14.1484L2.5 13.6797C2.61269 13.3376 2.76769 13.0143 2.96094 12.7109L3.49219 11.8828C3.69556 11.5648 3.94568 11.2845 4.23438 11.0391L4.60938 10.7109L4.99219 10.3906C5.3254 10.108 5.70838 9.90856 6.13281 9.80469L7.10156 9.57031C7.47748 9.47842 7.96363 9.43321 8.51562 9.41406L9.28906 9.38281C9.71542 9.25468 10.1885 9.414 10.4297 9.8125C10.7142 10.2844 10.5649 10.9016 10.0938 11.1875L10.0078 11.2344L9.78125 11.375L9.52344 11.3828L8.58594 11.4141C8.07422 11.4318 7.75181 11.4733 7.57812 11.5156L6.60938 11.75C6.48567 11.7803 6.37779 11.832 6.28125 11.9141L5.90625 12.2344L5.52344 12.5625C5.38404 12.6815 5.26587 12.8136 5.17188 12.9609L4.91406 13.375L4.64844 13.7812C4.5446 13.944 4.45949 14.1195 4.39844 14.3047L4.25 14.7734L4.09375 15.2422C4.04863 15.3804 4.02866 15.5215 4.03906 15.6719L4.07812 16.1719L4.10938 16.6641C4.12154 16.8333 4.16027 16.9943 4.22656 17.1484L4.61719 18.0547C4.70277 18.2538 4.81021 18.4423 4.92969 18.6172L5.20312 19.0156L5.47656 19.4219C5.57658 19.5681 5.69769 19.7015 5.84375 19.8203L6.625 20.4453C6.71555 20.5188 6.80907 20.5644 6.92188 20.5859L7.90625 20.7734C8.12727 20.8146 8.34637 20.8339 8.5625 20.8359L9.04688 20.8438H9.53906C9.66646 20.8446 9.78218 20.8188 9.89844 20.7656L10.7891 20.3594C10.9877 20.2678 11.1766 20.1568 11.3594 20.0312L11.7656 19.7578L12.1719 19.4766C12.262 19.4147 12.3303 19.3383 12.3828 19.2344L12.6094 18.7891L12.8281 18.3438C12.9315 18.139 13.0239 17.9285 13.0938 17.7109L13.2422 17.2422L13.3906 16.7656C13.44 16.6113 13.4609 16.4554 13.4531 16.2969L13.4062 15.3125C13.39 14.977 13.4042 14.6409 13.4453 14.3047L13.5703 13.3047C13.594 13.1096 13.5897 12.9133 13.5625 12.7188L13.4922 12.2266L13.4219 11.7266C13.3736 11.3798 13.3614 11.0282 13.3828 10.6797L13.4141 10.1875L13.4453 9.6875C13.4603 9.44245 13.4573 9.19775 13.4453 8.95312L13.4219 8.45312L13.3984 7.96094C13.3823 7.63075 13.3898 7.29866 13.4219 6.96875L13.4688 6.46875L13.5234 5.96875C13.5427 5.76867 13.5373 5.56776 13.5078 5.36719L13.4297 4.875L13.3594 4.375C13.3065 4.01503 13.299 3.65398 13.3359 3.29688L13.4297 2.34375C13.4379 2.26461 13.4514 2.15723 13.4766 2.05469C13.4871 2.01172 13.5167 1.90583 13.5781 1.78906C13.6088 1.7309 13.6782 1.61675 13.7969 1.50781C13.9237 1.39198 14.152 1.24511 14.4688 1.24219Z" fill="#24040E"/>
</svg>
