<svg width="24" height="24" viewBox="0 0 24 24" fill="none" xmlns="http://www.w3.org/2000/svg">
<path d="M20.2891 2.28906C20.6796 1.89854 21.3204 1.89854 21.7109 2.28906C22.1015 2.67959 22.1015 3.32041 21.7109 3.71094L21.6328 3.78125L21.6094 3.80469L21.5781 3.82812L20.8672 4.44531C20.4744 4.78311 20.2284 5.01938 20.1016 5.17188L19.7812 5.55469L19.4688 5.94531C19.2628 6.19307 19.0377 6.42713 18.8047 6.64844L18.4453 6.99219L18.0859 7.32812C17.8732 7.5302 17.6572 7.73462 17.4375 7.92969L17.0625 8.25781L16.6953 8.58594C16.5318 8.73113 16.377 8.89457 16.2422 9.07031L15.6328 9.86719C15.4316 10.1291 15.2168 10.362 14.9922 10.5625L14.8281 10.7031L14.8984 10.7969C15.045 10.9757 15.2132 11.1793 15.3906 11.4062L16 12.1875C16.1846 12.4236 16.3595 12.6687 16.5312 12.9141L16.8203 13.3203L17.1016 13.7266C17.2759 13.9757 17.4437 14.2314 17.6016 14.4922L17.8594 14.9219L18.1172 15.3438C18.251 15.5648 18.3977 15.7825 18.5469 15.9922L18.8359 16.3984L19.1172 16.7969C19.283 17.0299 19.4543 17.2649 19.6172 17.5L19.8984 17.9141L20.1797 18.3203C20.3184 18.5206 20.4709 18.7143 20.6328 18.8984L21.2891 19.6484C21.4022 19.7772 21.6869 20.1139 21.6797 20.5859C21.6749 20.8747 21.5615 21.147 21.3672 21.3516C21.193 21.5344 20.9901 21.625 20.8516 21.6719L20.5156 21.7812L20.1797 21.8984C19.8243 22.0187 19.4431 22.0402 19.0781 22.0156L18.5781 21.9844L18.0859 21.9531C17.8199 21.9352 17.5588 21.9187 17.3047 21.9141L16.8281 21.9062L16.3438 21.8984C15.7561 21.8866 15.2545 21.6169 14.9062 21.1641L14.6016 20.7734L14.3047 20.3828C14.1349 20.162 13.9614 19.9378 13.7891 19.7188L13.4844 19.3281L13.1719 18.9375C12.9712 18.6823 12.792 18.4119 12.625 18.1328L12.3672 17.7109L12.1094 17.2812C11.9849 17.0732 11.8512 16.8702 11.7031 16.6797L11.3984 16.2891L11.0859 15.8984C10.906 15.667 10.6657 15.339 10.3672 14.9219L10.3125 14.9688C10.1735 15.0807 10.0106 15.2264 9.83594 15.4062L9.49219 15.7656L9.14844 16.1172C8.97606 16.2947 8.81086 16.4834 8.65625 16.6797L8.34375 17.0703L8.03906 17.4688C7.83427 17.7286 7.60584 17.968 7.36719 18.1953L6.64844 18.8828C6.4584 19.0639 6.2732 19.2537 6.09375 19.4453L5.75781 19.8047L5.41406 20.1719C5.18296 20.4184 4.85052 20.7245 4.4375 21.0781L3.78125 21.6328L3.71094 21.7109C3.32041 22.1015 2.67959 22.1015 2.28906 21.7109C1.89854 21.3204 1.89854 20.6796 2.28906 20.2891L2.36719 20.2188L2.39062 20.1953L2.42188 20.1719L3.13281 19.5547C3.52906 19.2154 3.79806 18.9699 3.95312 18.8047L4.29688 18.4375L4.63281 18.0781C4.8386 17.8583 5.05547 17.6451 5.27344 17.4375L5.99219 16.75C6.16192 16.5883 6.32212 16.4127 6.46875 16.2266L6.77344 15.8359L7.08594 15.4375C7.28199 15.1889 7.49138 14.9527 7.71094 14.7266L8.05469 14.3672L8.40625 14.0156C8.62449 13.7909 8.83961 13.5873 9.05469 13.4141L9.21094 13.2812L9.13281 13.1719C8.83444 12.7426 8.61254 12.4448 8.46094 12.2656L8.14062 11.8828L7.8125 11.5C7.59992 11.2488 7.40864 10.9822 7.23438 10.7031L6.70312 9.85938C6.55985 9.62982 6.40908 9.40339 6.25781 9.17969L5.98438 8.76562L5.70312 8.35156C5.55478 8.13229 5.40097 7.91484 5.24219 7.70312L4.94531 7.30469L4.64844 6.91406C4.46948 6.67545 4.29228 6.42672 4.125 6.17969L3.84375 5.77344L3.57031 5.35938C3.4399 5.1668 3.29174 4.98564 3.13281 4.8125L2.79688 4.44531L2.46094 4.07031C2.37838 3.98038 2.26027 3.8404 2.17969 3.65625C2.09755 3.46744 2.00776 3.12075 2.17969 2.74219C2.34575 2.3766 2.64866 2.21278 2.82031 2.14844C2.9972 2.08246 3.17515 2.06921 3.29688 2.0625L4.32812 2C4.65989 1.98172 4.98978 1.98738 5.3125 2.00781L5.8125 2.03906L6.30469 2.07031C6.61415 2.08996 6.91862 2.11873 7.21094 2.16406L7.67188 2.23438L8.13281 2.3125C8.66862 2.39593 9.10721 2.67727 9.42188 3.09375L9.72656 3.49219L10.0234 3.89062C10.211 4.13931 10.3901 4.39903 10.5547 4.66406L10.8125 5.08594L11.0781 5.50781C11.2119 5.72315 11.3564 5.93053 11.5078 6.13281L12.1016 6.92969C12.2843 7.17375 12.4592 7.42348 12.625 7.67969L12.8984 8.10156L13.1641 8.51562C13.2933 8.71537 13.4128 8.86673 13.5156 8.97656L13.625 9.09375L13.6641 9.07031C13.7753 8.97068 13.9043 8.83403 14.0469 8.64844L14.6562 7.85156C14.8678 7.57577 15.108 7.32382 15.3672 7.09375L15.7344 6.75781L16.1094 6.42969C16.3122 6.24961 16.5146 6.0693 16.7109 5.88281L17.4297 5.19531C17.6056 5.02822 17.7737 4.85175 17.9297 4.66406L18.25 4.28125L18.5625 3.89844C18.7976 3.61555 19.1454 3.28848 19.5625 2.92969L20.2422 2.33594L20.2891 2.28906ZM5.22656 4.23438L5.5 4.64844L5.78125 5.0625C5.93001 5.28214 6.0831 5.49878 6.24219 5.71094L6.54688 6.10938L6.84375 6.50781C7.02193 6.74547 7.19293 6.98826 7.35938 7.23438L7.64062 7.64844L7.92188 8.05469C8.08629 8.29783 8.24276 8.54751 8.39844 8.79688L8.92969 9.64062C9.0538 9.83948 9.19204 10.0319 9.34375 10.2109L9.66406 10.5938L9.98438 10.9688C10.1986 11.2216 10.4635 11.5854 10.7734 12.0312L11.3125 12.7969H11.3047L11.3594 12.8672L11.4141 12.9453L11.4219 12.9531L11.9688 13.7188C12.2757 14.1482 12.5115 14.4657 12.6719 14.6719L13.2812 15.4531C13.4791 15.7076 13.6623 15.9729 13.8281 16.25L14.0781 16.6797L14.3359 17.1094C14.4595 17.316 14.594 17.5147 14.7422 17.7031L15.0547 18.0938L15.3594 18.4844C15.5359 18.7088 15.7166 18.93 15.8906 19.1562L16.1875 19.5547L16.4531 19.8984L16.8594 19.9062L17.3438 19.9219C17.6307 19.9272 17.9226 19.9332 18.2188 19.9531L18.7188 19.9922L18.9609 20C18.8157 19.8234 18.6692 19.6487 18.5391 19.4609L18.25 19.0547L17.9688 18.6406C17.8111 18.4132 17.6526 18.1864 17.4922 17.9609L16.9141 17.1484C16.7367 16.8991 16.5652 16.6452 16.4062 16.3828L16.1484 15.9531L15.8906 15.5312C15.7559 15.3088 15.6172 15.0873 15.4688 14.875L15.1797 14.4688L14.8984 14.0625C14.7467 13.8458 14.5849 13.6305 14.4219 13.4219L13.8125 12.6406C13.6422 12.4227 13.4862 12.2267 13.3516 12.0625L13.1094 11.7656L12.8594 11.4609C12.7888 11.3748 12.7294 11.3038 12.6875 11.25C12.6682 11.2252 12.6402 11.1891 12.6172 11.1562C12.6104 11.1465 12.5962 11.1233 12.5781 11.0938L12.1797 10.6953L12.2422 10.5859L12.1328 10.4297L12.0547 10.3438C11.8525 10.1278 11.6621 9.87619 11.4844 9.60156L11.2188 9.1875L11.0781 8.96875L10.5 8.17188L10.5391 8.1875C10.5251 8.16864 10.5141 8.14377 10.5 8.125L10.2031 7.72656L9.90625 7.33594C9.71968 7.08676 9.53946 6.8274 9.375 6.5625L9.11719 6.14062L8.85156 5.71875C8.71896 5.50517 8.58056 5.29388 8.42969 5.09375L8.125 4.69531L7.82812 4.29688L7.82031 4.28125L7.36719 4.21094L6.90625 4.14062C6.67695 4.10501 6.43372 4.07863 6.17969 4.0625L5.6875 4.03125L5.1875 4C5.13845 3.99689 5.08875 4.00191 5.03906 4C5.09876 4.08016 5.17045 4.15155 5.22656 4.23438Z" fill="#24040E"/>
</svg>
