<svg width="24" height="24" viewBox="0 0 24 24" fill="none" xmlns="http://www.w3.org/2000/svg">
<path d="M11.5781 18.9766C11.6927 18.9668 11.7917 18.9567 11.8672 18.9531C11.9008 18.9515 11.9548 18.9517 12.0078 18.9531C12.0281 18.9537 12.0945 18.955 12.1719 18.9688C12.1895 18.9719 12.2284 18.9842 12.2812 19C12.3298 19.0024 12.3891 19.0129 12.4609 19.0156L12.9609 19.0391L13.4609 19.0547C13.6686 19.0626 13.8737 19.0462 14.0781 19.0078L15.0625 18.8203C15.3243 18.771 15.5866 18.7185 15.8438 18.6562L16.3281 18.5391L16.8047 18.4219C17.1187 18.3459 17.4427 18.2874 17.7656 18.25L18.2578 18.1953L18.7578 18.1406C18.8963 18.1246 19.0243 18.0753 19.1484 18L19.5781 17.7422L20.0156 17.4766C20.1051 17.422 20.1649 17.3545 20.2109 17.2656L20.4453 16.8203L20.6719 16.375C20.7413 16.241 20.7791 16.1039 20.7891 15.9609L20.8281 15.4688L20.8594 14.9766C20.8793 14.6912 20.9051 14.4029 20.9297 14.1172L20.9688 13.6172L21.0156 13.125C21.0372 12.8745 21.0409 12.6184 21.0391 12.3672V11.875L21.0312 11.375C21.0293 11.1041 21.0259 10.8333 21.0156 10.5625L21 10.0625L20.9766 9.57031C20.9653 9.27521 20.9604 8.97603 20.9609 8.67969V7.67969C20.9612 7.52204 20.9327 7.37369 20.875 7.22656L20.6953 6.75781L20.5156 6.29688C20.4615 6.15892 20.379 6.03693 20.2734 5.92969L19.9219 5.57031L19.5703 5.21875C19.4781 5.12507 19.3768 5.05238 19.25 5.00781L18.2969 4.67969C18.0887 4.60661 17.8782 4.55362 17.6641 4.52344L16.6797 4.38281C16.4134 4.34528 16.1415 4.31493 15.875 4.28906L14.8906 4.19531C14.5977 4.16688 14.3004 4.13286 14.0078 4.09375L13.5156 4.02344L13.0234 3.96094C12.8092 3.9323 12.5905 3.92282 12.375 3.9375L11.8828 3.96875L11.3828 4.00781C11.1221 4.02559 10.8592 4.05158 10.6016 4.08594L10.1094 4.14844L9.625 4.21094C9.32537 4.2509 9.02073 4.28336 8.71875 4.30469L8.21875 4.34375L7.72656 4.375C7.49249 4.39152 7.26079 4.42782 7.03125 4.47656L6.53906 4.57812L6.05469 4.67969C5.83798 4.72587 5.62502 4.79079 5.42188 4.875L4.96875 5.07031L4.50781 5.25781C4.39464 5.30514 4.30396 5.37048 4.22656 5.46094L3.58594 6.21094C3.48754 6.32647 3.41141 6.45793 3.35938 6.60938L3.20312 7.08594L3.03906 7.55469C2.98827 7.70253 2.96916 7.85135 2.97656 8.00781L3.02344 9.00781C3.03875 9.32314 3.03869 9.63894 3.02344 9.95312L3 10.4531L2.97656 10.9453C2.96342 11.215 2.95612 11.4881 2.95312 11.7578L2.94531 12.2578L2.9375 12.75C2.93487 12.9866 2.94686 13.2253 2.97656 13.4609L3.10156 14.4453C3.13481 14.7091 3.17369 14.9717 3.21875 15.2266L3.30469 15.7109L3.39062 16.1875C3.41315 16.3148 3.45984 16.4234 3.53125 16.5234L4.09375 17.3047C4.16722 17.4075 4.25727 17.4954 4.375 17.5625L4.79688 17.8047L5.22656 18.0469C5.39336 18.1416 5.57309 18.2121 5.76562 18.2656L6.25 18.4062L6.72656 18.5391C6.92434 18.5939 7.129 18.6246 7.33594 18.6328L7.83594 18.6484L8.33594 18.6719C8.67525 18.6855 9.01157 18.7267 9.34375 18.7969L9.83594 18.8984L10.3203 19C10.526 19.0434 10.6829 19.0559 10.7891 19.0469L11.1797 19.0078L11.5781 18.9766ZM22.9609 8.67969C22.9604 8.94988 22.9663 9.22344 22.9766 9.49219L22.9922 9.98438L23.0156 10.4844C23.0267 10.776 23.0291 11.0677 23.0312 11.3594L23.0391 11.8594V12.3594C23.0412 12.6715 23.0346 12.9858 23.0078 13.2969L22.9609 13.7891L22.9219 14.2891C22.8983 14.5628 22.8707 14.8359 22.8516 15.1094L22.8203 15.6094L22.7891 16.1016C22.7598 16.5207 22.6465 16.9238 22.4531 17.2969L21.9844 18.1875C21.7682 18.6044 21.4553 18.944 21.0547 19.1875L20.6172 19.4531L20.1875 19.7109C19.8207 19.9335 19.4184 20.0752 18.9922 20.125L18.4922 20.1797L17.9922 20.2422C17.7496 20.2703 17.5074 20.3106 17.2734 20.3672L16.7969 20.4844L16.3125 20.6016C16.0218 20.6719 15.7251 20.7334 15.4297 20.7891L14.9453 20.8828L14.4531 20.9766C14.1009 21.043 13.7409 21.0683 13.3828 21.0547L12.8828 21.0312L12.3906 21.0156C12.2471 21.0102 12.1252 21.0058 12.0391 21C11.9992 20.9973 11.9465 20.9905 11.8984 20.9844C11.8811 20.9822 11.84 20.9724 11.7891 20.9609C11.7766 20.962 11.7638 20.9676 11.75 20.9688L11.3516 21L10.9531 21.0391C10.6099 21.068 10.2558 21.0348 9.90625 20.9609L9.42188 20.8594L8.92969 20.75C8.70831 20.7033 8.48405 20.6811 8.25781 20.6719L7.75781 20.6484L7.25781 20.6328C6.89817 20.6185 6.54165 20.5568 6.19531 20.4609L5.71094 20.3281L5.23438 20.1953C4.88414 20.0981 4.54839 19.9602 4.23438 19.7812L3.80469 19.5391L3.38281 19.2969C3.01783 19.0887 2.70535 18.811 2.46094 18.4688L2.17969 18.0781L1.90625 17.6875C1.66036 17.3432 1.49597 16.9552 1.42188 16.5391L1.33594 16.0547L1.25 15.5781C1.19886 15.2891 1.15459 14.9921 1.11719 14.6953L0.992188 13.7109C0.951131 13.3852 0.933858 13.0544 0.9375 12.7266L0.945312 12.2344L0.953125 11.7344C0.95641 11.4401 0.962231 11.1458 0.976562 10.8516L1 10.3516L1.02344 9.85938C1.03554 9.61088 1.03548 9.35967 1.02344 9.10938L0.976562 8.10938C0.956643 7.69923 1.01508 7.29459 1.14844 6.90625L1.3125 6.42969L1.46875 5.96094C1.60108 5.57578 1.80629 5.22365 2.07031 4.91406L2.38281 4.53906L2.70312 4.16406C2.98742 3.83069 3.33781 3.57403 3.74219 3.40625L4.20312 3.21875L4.65625 3.03125C4.97264 2.9001 5.305 2.79808 5.64062 2.72656L6.125 2.625L6.60938 2.51562C6.93104 2.44708 7.25788 2.40597 7.58594 2.38281L8.07812 2.34375L8.57812 2.3125C8.83888 2.29408 9.10087 2.26885 9.35938 2.23438L9.85156 2.16406L10.3438 2.10156C10.6436 2.06164 10.9472 2.02844 11.25 2.00781L11.7422 1.97656L12.2422 1.94531C12.5915 1.92152 12.942 1.93016 13.2891 1.97656L13.7812 2.03906L14.2734 2.10938C14.541 2.14514 14.8105 2.1771 15.0781 2.20312L15.5781 2.25L16.0703 2.29688C16.3647 2.32545 16.6593 2.36487 16.9531 2.40625L17.4531 2.46875L17.9453 2.53906C18.2912 2.58787 18.6299 2.67281 18.9609 2.78906L19.4375 2.96094L19.9141 3.125C20.3268 3.27023 20.693 3.50051 21 3.8125L21.7031 4.53125C21.9956 4.829 22.2222 5.17411 22.375 5.5625L22.5547 6.03125L22.7422 6.49219C22.8916 6.87313 22.9617 7.27831 22.9609 7.6875V8.67969Z" fill="#24040E"/>
<path d="M10.8906 7.16406C11.3895 7.08319 11.8713 7.18184 12.2969 7.42969L12.7188 7.67969L13.1328 7.92188C13.3688 8.05967 13.6088 8.19281 13.8438 8.32812L14.6719 8.8125C14.936 8.96465 15.2005 9.12595 15.4531 9.30469L15.8516 9.59375L16.25 9.875C16.4106 9.98862 16.5929 10.1373 16.7344 10.3281C16.8779 10.5221 17.0224 10.8214 17 11.1953L16.9844 11.4375L16.9688 11.6719C16.9345 12.2299 16.5577 12.6164 16.3281 12.8203L15.9844 13.1328L15.6328 13.4453C15.4037 13.6485 15.1561 13.8382 14.8984 14.0156L14.5 14.2891L14.1094 14.5625C13.8255 14.7579 13.5217 14.9235 13.2031 15.0547L12.7578 15.2344L12.3125 15.4219C11.9667 15.5643 11.6046 15.6498 11.2344 15.6719L10.7891 15.6953L10.3516 15.7266C9.74841 15.762 9.21496 15.4948 8.875 15L8.625 14.6328L8.36719 14.2656C8.10403 13.8818 7.98276 13.445 7.97656 12.9922L7.96094 12.0234C7.95739 11.7368 7.96044 11.4503 7.96875 11.1641L7.98438 10.6797L8 10.2031C8.01185 9.79516 8.10154 9.39801 8.28906 9.03125L8.49219 8.63281L8.69531 8.24219L8.92969 7.89062C9.1988 7.57697 9.56585 7.38041 9.98438 7.3125L10.4375 7.23438L10.8906 7.16406ZM10.7578 9.21094L10.4141 9.26562L10.2734 9.54688L10.0703 9.94531C10.0303 10.0246 10.0042 10.1233 10 10.2578L9.98438 10.7422L9.96875 11.2188C9.96122 11.4779 9.95771 11.7404 9.96094 12L9.96875 12.4844L9.97656 12.9609C9.9777 13.0518 9.99416 13.101 10.0156 13.1328L10.2734 13.5L10.4141 13.7109L10.6719 13.7031L11.1172 13.6719C11.2467 13.6639 11.3889 13.6352 11.5469 13.5703L11.9922 13.3828L12.4375 13.2031C12.6243 13.1262 12.802 13.0286 12.9688 12.9141L13.7656 12.3672C13.9588 12.2342 14.1387 12.0927 14.3047 11.9453L14.6562 11.6406L14.9297 11.3906L14.6953 11.2266L14.2969 10.9375C14.095 10.7947 13.8877 10.6668 13.6797 10.5469L13.2578 10.3047L12.8438 10.0625C12.6056 9.92532 12.3642 9.78808 12.125 9.64844L11.7109 9.40625L11.2891 9.16406C11.2581 9.14601 11.2388 9.14149 11.2344 9.14062C11.2302 9.14003 11.2239 9.13853 11.2109 9.14062L10.7578 9.21094Z" fill="#24040E"/>
</svg>
